<svg xmlns="http://www.w3.org/2000/svg" version="1.1" xlink="http://www.w3.org/1999/xlink" xmlns:svgjs="http://svgjs.com/svgjs" width="100%" height="100%" viewBox="0 6.3984375 100.015625 87.203125">
	<g fill="#ef8a1f">
		<path d="M99.7 76.4L59.9 7.5c-.4-.7-1.2-1.1-2-1.1H42c-.8 0-1.6.4-2 1.1L.3 76.4c-.4.7-.4 1.6 0 2.3l8 13.8c.4.7 1.2 1.1 2 1.1h79.5c.8 0 1.6-.4 2-1.1l8-13.8c.3-.7.3-1.6-.1-2.3zM43.4 11H54L24.2 62.6c-.4.7-.4 1.6 0 2.3.4.7 1.2 1.1 2 1.1h30.5l5.3 9.2H6.3L43.4 11zM50 54.6l4 6.9h-8l4-6.9zM6.3 79.8h59.6c.8 0 1.6-.4 2-1.1s.4-1.6 0-2.3L52.7 50l5.3-9.2L85.8 89H11.6l-5.3-9.2zm83.5 6.9L59.9 35.1c-.4-.7-1.2-1.1-2-1.1s-1.6.4-2 1.1L40.7 61.5H30.1L58 13.3l37.1 64.3-5.3 9.1z">
		</path>
	</g>
</svg>
