<?xml version="1.0" encoding="utf-8"?>
<!-- Generator: Adobe Illustrator 26.3.1, SVG Export Plug-In . SVG Version: 6.00 Build 0)  -->
<svg version="1.1" id="Слой_1" xmlns="http://www.w3.org/2000/svg" xmlns:xlink="http://www.w3.org/1999/xlink" x="0px" y="0px"
	 viewBox="0 0 219.3 39.8" style="enable-background:new 0 0 219.3 39.8;" xml:space="preserve">
<path id="_108867896" d="M137,10.5l-2.4,29.3h5.7l0.4-5.2h7.6l0.4,5.2h5.7l-2.4-29.3H137z M141.2,29.4L141.2,29.4l1.1-13.7h4.6
	l1.1,13.7H141.2z"/>
<polygon id="_108867848" points="128.9,10.5 117.5,10.5 115.7,22 113.8,10.5 102.4,10.5 102.4,39.8 108.1,39.8 108.1,15.7 
	108.9,15.7 112.8,39.8 118.5,39.8 122.5,15.7 123.2,15.7 123.2,39.8 128.9,39.8 "/>
<path id="_108867752" d="M160.3,18.3v13.8c0,4.3,3.8,7.7,8.5,7.7h2.9c4.7,0,8.5-3.5,8.5-7.7v-6.9h-10v5.2h4.2v1.7
	c0,1.4-1.3,2.6-2.8,2.6h-2.9c-1.5,0-2.8-1.1-2.8-2.6V18.3c0-1.4,1.3-2.6,2.8-2.6h2.9c1.5,0,2.8,1.1,2.8,2.6v1.6h5.7v-1.6
	c0-4.3-3.8-7.7-8.5-7.7h-2.9C164.1,10.5,160.3,14,160.3,18.3z"/>
<polygon id="_108867728" points="191.7,10.5 186,10.5 186,39.8 191.7,39.8 "/>
<polygon id="_108868016" points="203.1,15.7 203.9,15.7 207.8,39.8 219.3,39.8 219.3,10.5 213.5,10.5 213.5,34.8 212.8,34.8 
	208.9,10.5 208.8,10.5 197.4,10.5 197.4,39.8 203.1,39.8 "/>
<path id="_108868736" d="M83.3,22.7c4.5,1.8,8.9,2.9,8.9,7.3c0,3.6-3.8,5.6-8.3,5.6c-4.3,0-7.5-2.4-7.5-5.7c0-2.7,1.4-5.3-0.7-7.3
	c-2.2-2.1-5.2-0.8-5.2-0.8l0.4,0.9c2.1-0.7,3.5,1.2,2.9,2.5c-1.5,3-1.5,3.7-1.6,5.1c-0.3,2.9,1.5,5.7,4.6,7.5c2.2,1.3,5,1.9,7.8,1.9
	c7.1,0,12.8-4.4,12.8-9.9v-1c0-10.4-21.2-10.2-21-17.8c0-3.6,2.4-7,7.7-7h0.5c0.6,0,1.2,0.1,1.8,0.2c2.2,0.5,3.2,1.1,4.2,2
	c1.1,1,1.8,2.3,1.8,3.8v0.7l0,0l-0.9,2l2.7,4.7h0.8h0.8l2.7-4.7l-0.9-2l0,0v-0.7c0-3-1.8-5.7-4.6-7.6C90.4,1.2,87.3,0,84.4,0
	c-7.2,0-13.5,4.4-13.5,10.2C70.8,16.8,76.5,19.9,83.3,22.7L83.3,22.7z"/>
<polygon id="_108868784" points="18.4,34.5 6,34.5 6,0.5 0,0.5 0,39.8 18.4,39.8 "/>
<polygon id="_108868760" points="39.7,34.6 28.4,34.6 28.4,27.9 39.7,27.9 39.7,22.7 28.4,22.7 28.4,16.2 39.7,16.2 39.7,11 
	22.7,11 22.7,39.8 39.7,39.8 "/>
<path id="_108868424" d="M54,39.8h2.9c4.7,0,8.5-3.5,8.5-7.7V18.8c0-4.3-3.8-7.7-8.5-7.7H54c-4.7,0-8.5,3.5-8.5,7.7v13.3
	C45.5,36.4,49.3,39.8,54,39.8z M51.2,18.8L51.2,18.8c0-1.4,1.3-2.6,2.8-2.6h2.9c1.5,0,2.8,1.1,2.8,2.6v13.3c0,1.4-1.3,2.6-2.8,2.6
	H54c-1.5,0-2.8-1.1-2.8-2.6V18.8z"/>
</svg>
