<svg id="Слой_1" data-name="Слой 1" xmlns="http://www.w3.org/2000/svg" viewBox="0 0 293.76 18"><path d="M6.36,0a5.86,5.86,0,0,1,4.8,2L9.48,3.48A3.38,3.38,0,0,0,6.36,1.92a4.65,4.65,0,0,0-2.64.72,2.06,2.06,0,0,0-1,2,2.21,2.21,0,0,0,.72,1.8A9.82,9.82,0,0,0,6.36,7.8,9.42,9.42,0,0,1,10.2,9.72a4.22,4.22,0,0,1,1.08,3.12,4.33,4.33,0,0,1-1.68,3.6,6.78,6.78,0,0,1-4.32,1.32,7.49,7.49,0,0,1-3.12-.6A5.64,5.64,0,0,1,0,15.48L1.68,14a3.85,3.85,0,0,0,1.56,1.44,4.5,4.5,0,0,0,2,.48,4.17,4.17,0,0,0,2.64-.84A2.62,2.62,0,0,0,9,13a2.72,2.72,0,0,0-.6-1.8,3.9,3.9,0,0,0-2.16-1.08l-1.92-.6A6.53,6.53,0,0,1,1.2,7.56a4.29,4.29,0,0,1-1-2.76A4.34,4.34,0,0,1,1.8,1.32,6.29,6.29,0,0,1,6,0ZM35.28.36v17h-2V.36Zm25.2,0,9.84,14.16h0V.36h2v17H69.84L60,3.24h0V17.4H58V.36ZM102.84,0a7.71,7.71,0,0,1,3.48.72,8.44,8.44,0,0,1,2.52,1.92L107,4a4.08,4.08,0,0,0-1.92-1.56,6.42,6.42,0,0,0-2.4-.48,5.82,5.82,0,0,0-4.56,2,7.84,7.84,0,0,0-1.92,5A7.34,7.34,0,0,0,98,14a6,6,0,0,0,4.68,2,6,6,0,0,0,4.92-2.4L109.2,15a7.66,7.66,0,0,1-6.48,3,8.08,8.08,0,0,1-6.12-2.52,9.3,9.3,0,0,1-2.52-6.36,8.85,8.85,0,0,1,2.4-6.36A8.62,8.62,0,0,1,102.72.12Zm38.4.36V2.28H132.6V7.56h8V9.48h-8v6h9.12V17.4H130.56V.36Zm52-.24a5.29,5.29,0,0,1,3.72,1.32,4.36,4.36,0,0,1,1.44,3.36,7,7,0,0,1-.24,1.92,4.24,4.24,0,0,1-.84,1.56q-.6.72-2.16,2.28l-5.28,4.92h8.64V17.4H187.56V15.12L194,8.76a10.52,10.52,0,0,0,1.68-2,5.1,5.1,0,0,0,.6-2,2.54,2.54,0,0,0-.84-2,3.91,3.91,0,0,0-2.28-.84,3.2,3.2,0,0,0-2.16.72A3.29,3.29,0,0,0,190,4.44L187.8,4.2a4.75,4.75,0,0,1,1.8-3.12A5.83,5.83,0,0,1,193.2,0Zm31.68,0A5,5,0,0,1,229.2,2.4a10.84,10.84,0,0,1,1.44,6.48,12.16,12.16,0,0,1-1.44,6.48,4.77,4.77,0,0,1-4.32,2.28,5,5,0,0,1-4.32-2.28,10.84,10.84,0,0,1-1.44-6.48,12.16,12.16,0,0,1,1.44-6.48A4.77,4.77,0,0,1,224.88.12Zm-3.72,8.76a11.51,11.51,0,0,0,1,5.28,3,3,0,0,0,5.52,0,11.51,11.51,0,0,0,1-5.28q0-7-3.72-7.08a3,3,0,0,0-2.76,1.8A11.51,11.51,0,0,0,221.16,8.88ZM256.68.12A5,5,0,0,1,261,2.4a10.84,10.84,0,0,1,1.44,6.48A12.16,12.16,0,0,1,261,15.36a4.77,4.77,0,0,1-4.32,2.28,5,5,0,0,1-4.32-2.28,10.84,10.84,0,0,1-1.44-6.48,12.16,12.16,0,0,1,1.44-6.48A4.77,4.77,0,0,1,256.68.12ZM253,8.88a11.51,11.51,0,0,0,1,5.28,3,3,0,0,0,5.52,0,11.51,11.51,0,0,0,1-5.28q0-7-3.72-7.08a3,3,0,0,0-2.76,1.8A11.51,11.51,0,0,0,253,8.88ZM288.24.12a5.15,5.15,0,0,1,3.6,1.2,4.55,4.55,0,0,1,1.44,3.24,3.82,3.82,0,0,1-.84,2.4,4.72,4.72,0,0,1-2.16,1.56h0A3.86,3.86,0,0,1,292.8,10a4.47,4.47,0,0,1,1,2.88,4.47,4.47,0,0,1-1.56,3.6,6.1,6.1,0,0,1-4.08,1.32q-4.2,0-5.52-3.6l2-.72a3.33,3.33,0,0,0,1.2,1.92,3.85,3.85,0,0,0,2.28.6,3.67,3.67,0,0,0,2.52-1,2.75,2.75,0,0,0,1-2.4,2.86,2.86,0,0,0-1.08-2.4,5.46,5.46,0,0,0-3.36-.84h-.48V7.68h.72q3.72,0,3.72-3a2.78,2.78,0,0,0-.84-2,2.92,2.92,0,0,0-2.16-.84A3.25,3.25,0,0,0,285,3.72L283.08,3A4.23,4.23,0,0,1,285,.84a6.16,6.16,0,0,1,3-.72Z"/></svg>