<svg width="100%" height="100%" viewBox="0 0 355 92.57788459248326" version="1.1" xmlns="http://www.w3.org/2000/svg">
  <g featurekey="k6v3K5-0" transform="matrix(3.0429489612579346,0,0,3.0429489612579346,-1.6944870860794925,-9.11927977012586)" fill="#111111">
    <path d="M12.66 20 l-10.46 0 l0 -14.92 l2.18 0 l0 12.74 l8.28 0 l0 2.18 z M17.5 16.28 l0 1.64 l6.5 0 l0 2.08 l-8.54 0 l0 -10.36 l8.16 0 l0 2.06 l-6.12 0 l0 2.52 q0.62 -0.36 1.5 -0.5 q0.68 -0.1 1.74 -0.1 l1.52 0 l0 2.06 l-1.52 0 q-1.38 0 -2 0.12 q-0.54 0.1 -1.24 0.48 z M36.980000000000004 14.74 q0 -1.1 -0.6 -1.9 q-0.52 -0.7 -1.46 -1.08 q-0.86 -0.34 -1.9 -0.34 t-1.92 0.36 q-0.94 0.38 -1.46 1.12 q-0.58 0.8 -0.58 1.92 t0.6 1.92 q0.52 0.72 1.46 1.12 q0.88 0.36 1.9 0.36 t1.92 -0.4 q0.92 -0.42 1.46 -1.18 q0.58 -0.82 0.58 -1.9 z M39.14 14.719999999999999 q0 1.7 -0.9 3.02 q-0.82 1.22 -2.26 1.92 q-1.38 0.66 -2.98 0.66 t-2.98 -0.66 q-1.42 -0.68 -2.24 -1.88 q-0.88 -1.32 -0.88 -3 t0.9 -2.98 q0.82 -1.2 2.26 -1.86 q1.38 -0.64 2.98 -0.64 t2.96 0.6 q1.42 0.64 2.24 1.82 q0.9 1.28 0.9 3 z M54.34 15.46 q0 1.46 -0.88 2.6 q-0.86 1.08 -2.37 1.68 t-3.41 0.6 q-1.74 0 -3.38 -0.81 t-2.76 -2.25 l1.56 -1.46 q1.94 2.34 4.58 2.34 q1.16 0 2.12 -0.28 q1.06 -0.32 1.64 -0.9 q0.66 -0.64 0.66 -1.52 q0 -1.06 -0.66 -1.6 q-0.56 -0.46 -1.66 -0.6 q-0.64 -0.08 -2.1 -0.08 q-2.68 0 -4.09 -0.98 t-1.41 -2.88 q0 -1.2 0.71 -2.28 t1.95 -1.72 q1.28 -0.68 2.84 -0.68 q1.76 0 3.18 0.54 q1.52 0.58 2.82 1.82 l-1.36 1.6 q-1.22 -0.98 -2.22 -1.37 t-2.42 -0.39 q-0.82 0 -1.53 0.34 t-1.13 0.91 t-0.42 1.21 q0 1.72 3.18 1.72 q2.54 0 4.02 0.52 q1.4 0.5 2 1.52 q0.54 0.9 0.54 2.4 z M70.32000000000001 9.64 l-1.02 1.66 l0 8.7 l-2.26 0 l0 -6.06 l-3.66 4.88 l-3.66 -4.88 l0 6.06 l-2.26 0 l0 -8.7 l-1.02 -1.66 l2.52 0 l4.42 5.86 l4.42 -5.86 l2.52 0 z M79.78 16.56 l0.28 0 l-2.02 -3.84 l-2.46 4.74 q0.68 -0.36 1.54 -0.58 q1.24 -0.32 2.66 -0.32 z M76.98 10.7 l-0.68 -1.3 l2.22 0 l5.6 10.6 l-2.26 0 l-0.82 -1.56 l-1.24 0 q-1.18 0 -2.5 0.28 q-1.12 0.22 -2.04 0.6 q-0.84 0.32 -1.02 0.56 l-0.06 0.12 l-2.16 0 z M96.68 14.1 l0 4.74 q-0.84 0.72 -1.95 1.1 t-2.31 0.38 q-1.6 0 -2.98 -0.66 q-1.42 -0.68 -2.24 -1.88 q-0.88 -1.32 -0.88 -3 t0.9 -2.98 q0.82 -1.2 2.26 -1.86 q1.38 -0.64 2.96 -0.64 q1.16 0 2.24 0.33 t1.92 0.97 l-1.38 1.6 q-0.58 -0.4 -1.31 -0.61 t-1.47 -0.21 q-1.04 0 -1.92 0.38 q-0.92 0.38 -1.44 1.12 q-0.58 0.82 -0.58 1.94 t0.58 1.92 q0.54 0.74 1.48 1.14 q0.86 0.36 1.9 0.36 q1.16 0 2.18 -0.54 l0 -1.66 l-1.06 0 l-0.88 -1.94 l3.98 0 z M102.82 20 l-2.04 0 l0 -10.36 l2.04 0 l0 10.36 z M106.32 9.64 l2.58 0 l6.26 7.2 l0 -7.2 l2.06 0 l0 10.36 l-2.06 0 l-5.76 -6.74 l0 6.74 l-2.06 0 l0 -8.82 z"></path>
  </g>
  
</svg>
