<svg xmlns="http://www.w3.org/2000/svg" viewBox="0 2 355 92.57788459248326">
  <path d="M 5.9 5.5 q 2.6 0 4 1.7 l -1.4 1.2 q -0.8 -1.3 -2.6 -1.3 q -1.3 0 -2.2 0.6 t -0.8 1.7 q 0 1 0.6 1.5 t 2.4 1.1 q 2.3 0.7 3.2 1.6 t 0.9 2.6 q 0 1.9 -1.4 3 t -3.6 1.1 q -1.5 0 -2.6 -0.5 t -1.8 -1.4 l 1.4 -1.2 q 0.5 0.8 1.3 1.2 t 1.7 0.4 q 1.3 0 2.2 -0.7 t 0.9 -1.8 q 0 -0.9 -0.5 -1.5 t -1.8 -0.9 l -1.6 -0.5 q -1.8 -0.6 -2.6 -1.6 t -0.8 -2.3 q 0 -1.8 1.3 -2.9 t 3.5 -1.1 z M 30 5.8 l 0 14.2 l -1.7 0 l 0 -14.2 l 1.7 0 z M 51 5.8 l 8.2 11.8 l 0 0 l 0 -11.8 l 1.7 0 l 0 14.2 l -2.1 0 l -8.2 -11.8 l 0 0 l 0 11.8 l -1.7 0 l 0 -14.2 l 2.1 0 z M 86.3 5.5 q 1.7 0 2.9 0.6 t 2.1 1.6 l -1.5 1.1 q -0.6 -0.9 -1.6 -1.3 t -2 -0.4 q -2.3 0 -3.8 1.7 t -1.6 4.2 q 0 2.5 1.5 4.2 t 3.9 1.7 q 2.5 0 4.1 -2 l 1.3 1.1 q -1.9 2.5 -5.4 2.5 q -3.1 0 -5.1 -2.1 t -2.1 -5.3 q 0 -3.2 2 -5.3 t 5.2 -2.2 z M 118.3 5.8 l 0 1.6 l -7.2 0 l 0 4.4 l 6.7 0 l 0 1.6 l -6.7 0 l 0 5 l 7.6 0 l 0 1.6 l -9.3 0 l 0 -14.2 l 8.9 0 z M 161.6 5.6 q 1.9 0 3.1 1.1 t 1.2 2.8 q 0 0.9 -0.2 1.6 t -0.7 1.3 t -1.8 1.9 l -4.4 4.1 l 0 0 l 7.2 0 l 0 1.6 l -9.1 0 l 0 -1.9 l 5.4 -5.3 q 1 -1 1.4 -1.7 t 0.5 -1.7 q 0 -1.1 -0.7 -1.7 t -1.9 -0.7 q -1.1 0 -1.8 0.6 t -0.9 1.6 l -1.8 -0.2 q 0.3 -1.7 1.5 -2.6 t 3 -0.9 z M 188 5.6 q 2.3 0 3.6 1.9 t 1.2 5.4 q 0 3.5 -1.2 5.4 t -3.6 1.9 q -2.3 0 -3.6 -1.9 t -1.2 -5.4 q 0 -3.5 1.2 -5.4 t 3.6 -1.9 z M 184.9 12.9 q 0 2.9 0.8 4.4 t 2.3 1.5 t 2.3 -1.5 t 0.8 -4.4 q 0 -5.8 -3.1 -5.9 q -1.5 0 -2.3 1.5 t -0.8 4.4 z M 214.5 5.6 q 2.3 0 3.6 1.9 t 1.2 5.4 q 0 3.5 -1.2 5.4 t -3.6 1.9 q -2.3 0 -3.6 -1.9 t -1.2 -5.4 q 0 -3.5 1.2 -5.4 t 3.6 -1.9 z M 211.4 12.9 q 0 2.9 0.8 4.4 t 2.3 1.5 t 2.3 -1.5 t 0.8 -4.4 q 0 -5.8 -3.1 -5.9 q -1.5 0 -2.3 1.5 t -0.8 4.4 z M 240.8 5.6 q 1.9 0 3 1 t 1.2 2.7 q 0 1.1 -0.7 2 t -1.8 1.3 l 0 0 q 1.3 0.2 2.1 1.2 t 0.8 2.4 q 0 1.9 -1.3 3 t -3.4 1.1 q -3.5 0 -4.6 -3 l 1.7 -0.6 q 0.3 1.1 1 1.6 t 1.9 0.5 q 1.2 0 2.1 -0.8 t 0.8 -2 q 0 -1.3 -0.9 -2 t -2.8 -0.7 l -0.4 0 l 0 -1.4 l 0.6 0 q 3.1 0 3.1 -2.5 q 0 -1 -0.7 -1.7 t -1.8 -0.7 q -1.8 0 -2.6 1.6 l -1.6 -0.6 q 0.5 -1.2 1.6 -1.8 t 2.5 -0.6 z" transform="matrix(1.2,0,0,1.2,26.1,68.2)">
    </path>
</svg>