<?xml version="1.0" encoding="utf-8"?>
<!-- Generator: Adobe Illustrator 26.3.1, SVG Export Plug-In . SVG Version: 6.00 Build 0)  -->
<svg version="1.1" id="Слой_1" xmlns="http://www.w3.org/2000/svg" xmlns:xlink="http://www.w3.org/1999/xlink" x="0px" y="0px"
	 viewBox="0 0 219.3 56.5" style="enable-background:new 0 0 219.3 56.5;" xml:space="preserve">
<path id="_108867896" d="M137,24.1l-2.4,32.3h5.7l0.4-5.7h7.6l0.4,5.7h5.7l-2.4-32.3C152.2,24.1,137,24.1,137,24.1z M141.2,44.9
	L141.2,44.9l1.1-15.1h4.6l1.1,15.1H141.2z"/>
<polygon id="_108867848" points="128.9,24.1 117.5,24.1 115.7,36.7 113.8,24.1 102.4,24.1 102.4,56.4 108.1,56.4 108.1,29.8 
	108.9,29.8 112.8,56.4 118.6,56.4 122.5,29.8 123.2,29.8 123.2,56.4 128.9,56.4 "/>
<path id="_108867752" d="M160.3,32.6v15.2c0,4.7,3.8,8.5,8.5,8.5h2.9c4.7,0,8.5-3.8,8.5-8.5v-7.6h-10V46h4.2v1.9
	c0,1.5-1.3,2.8-2.8,2.8h-2.9c-1.5,0-2.8-1.3-2.8-2.8V32.6c0-1.5,1.3-2.8,2.8-2.8h2.9c1.5,0,2.8,1.3,2.8,2.8v1.7h5.7v-1.7
	c0-4.7-3.8-8.5-8.5-8.5h-2.9C164.1,24.1,160.3,27.9,160.3,32.6z"/>
<polygon id="_108867728" points="191.7,24.1 186,24.1 186,56.4 191.7,56.4 "/>
<polygon id="_108868016" points="203.1,29.8 203.9,29.8 207.8,56.4 219.3,56.4 219.3,24.1 213.5,24.1 213.5,50.8 212.8,50.8 
	208.9,24.1 208.8,24.1 197.4,24.1 197.4,56.4 203.1,56.4 "/>
<path id="_108868736" d="M82.8,31.3c6.1,3.2,9.8,5.5,9.8,9.7v1.4c0,4.7-3.8,8.6-8.6,8.6h-0.6c-2.2,0-4.3-0.9-5.9-2.4
	c-1.7-1.6-2.8-3.9-2.8-6.4c0-3.9,1.9-7.5-0.4-10.3c-2.4-3-5.8-1.1-5.8-1.1l0.4,1.3c2.3-1,3.9,1.6,3.2,3.6c-1.6,4.4-1.6,5.4-1.8,7.3
	c-0.3,4.2,1.7,8.1,5.1,10.7c2.5,1.8,5.5,2.8,8.6,2.8c7.8,0,14.1-6.3,14.1-14.1V41c0-7.9-6.8-11.5-12.8-14.7
	c-6.5-3.4-10.5-5.9-10.5-10.8v-1.4c0-4.7,3.8-8.6,8.6-8.6H84c0.7,0,1.3,0.1,2,0.2c2.5,0.7,3.5,1.5,4.6,2.9c1.2,1.5,2,3.4,2,5.4v1
	l0,0l-1,2.9l3,6.7h0.8h0.8l3-6.7l-1-2.9l0,0v-1c0-4.3-2-8.2-5.1-10.8c-1.8-1.5-4-2.6-6.3-3C85.9,0.1,85,0,84,0h-0.6
	c-7.8,0-14.1,6.3-14.1,14.1v1.4C69.4,24.2,76.5,27.9,82.8,31.3L82.8,31.3z"/>
<polygon id="_108868784" points="18.4,50.5 6,50.5 6,0.1 0,0.1 0,56.4 18.4,56.4 "/>
<polygon id="_108868760" points="39.7,50.7 28.4,50.7 28.4,43.3 39.7,43.3 39.7,37.6 28.4,37.6 28.4,30.4 39.7,30.4 39.7,24.7 
	22.7,24.7 22.7,56.4 39.7,56.4 "/>
<path id="_108868424" d="M54,56.4h2.9c4.7,0,8.5-3.8,8.5-8.5V33.2c0-4.7-3.8-8.5-8.5-8.5H54c-4.7,0-8.5,3.8-8.5,8.5v14.7
	C45.5,52.6,49.3,56.4,54,56.4L54,56.4z M51.2,33.2L51.2,33.2c0-1.5,1.3-2.8,2.8-2.8h2.9c1.5,0,2.8,1.3,2.8,2.8v14.7
	c0,1.5-1.3,2.8-2.8,2.8H54c-1.5,0-2.8-1.3-2.8-2.8V33.2z"/>
</svg>
